<svg width="20" height="21" viewBox="0 0 20 21" fill="none" xmlns="http://www.w3.org/2000/svg">
<path d="M19.7803 0.719668C20.0466 0.985938 20.0708 1.4026 19.8529 1.69621L19.7803 1.78033L15.7458 5.8149C17.6678 7.16437 19.1042 9.1799 19.7011 11.5644C19.8017 11.9662 19.5575 12.3735 19.1557 12.4741C18.7539 12.5746 18.3466 12.3304 18.246 11.9286C17.7165 9.8135 16.4089 8.03947 14.6658 6.89452L12.8562 8.7043C13.5637 9.4258 14 10.4143 14 11.5046C14 13.7138 12.2091 15.5046 10 15.5046C8.9096 15.5046 7.92116 15.0683 7.19963 14.3608L1.28033 20.2803C0.98744 20.5732 0.51256 20.5732 0.21967 20.2803C-0.0465996 20.0141 -0.0707998 19.5974 0.14705 19.3038L0.21967 19.2197L6.33321 13.1055L6.332 13.104L13.2812 6.15782L13.28 6.156L14.4133 5.02549L18.7197 0.719668C19.0126 0.426777 19.4874 0.426777 19.7803 0.719668ZM10 4C11.0003 4 11.9709 4.14807 12.8889 4.425L11.6519 5.66119C11.1161 5.55532 10.5636 5.5 10 5.5C6.07693 5.5 2.6901 8.18026 1.75286 11.9332C1.6525 12.335 1.24535 12.5794 0.84348 12.4791C0.44161 12.3787 0.19719 11.9716 0.29755 11.5697C1.40065 7.15272 5.38448 4 10 4ZM9.8053 7.50928L6.004 11.31C6.10575 9.2531 7.75276 7.60764 9.8053 7.50928Z" fill="white"/>
</svg>
