<svg width="20" height="12" viewBox="0 0 20 12" fill="none" xmlns="http://www.w3.org/2000/svg">
<path d="M10.0004 3.50462C12.2095 3.50462 14.0004 5.2955 14.0004 7.5046C14.0004 9.7138 12.2095 11.5046 10.0004 11.5046C7.79122 11.5046 6.00036 9.7138 6.00036 7.5046C6.00036 5.2955 7.79122 3.50462 10.0004 3.50462ZM10.0004 0C14.6139 0 18.5965 3.15001 19.7015 7.5644C19.8021 7.9662 19.5579 8.3735 19.1561 8.4741C18.7542 8.5746 18.347 8.3305 18.2464 7.9286C17.3075 4.17796 13.9217 1.5 10.0004 1.5C6.07729 1.5 2.69046 4.18026 1.75322 7.9332C1.65286 8.335 1.24572 8.5794 0.843849 8.4791C0.441969 8.3787 0.197549 7.9716 0.297919 7.5697C1.40101 3.15272 5.38484 0 10.0004 0Z" fill="white"/>
</svg>
