<svg width="20" height="20" viewBox="0 0 20 20" fill="none" xmlns="http://www.w3.org/2000/svg">
<path d="M10.0001 1.66675C14.6024 1.66675 18.3334 5.39771 18.3334 10.0001C18.3334 14.6024 14.6024 18.3334 10.0001 18.3334C5.39771 18.3334 1.66675 14.6024 1.66675 10.0001C1.66675 5.39771 5.39771 1.66675 10.0001 1.66675ZM12.942 7.05814L12.8719 6.99762C12.6544 6.83625 12.3559 6.83426 12.1364 6.99165L12.0582 7.05814L10.0001 9.11592L7.94202 7.05814L7.87192 6.99762C7.65443 6.83625 7.35592 6.83426 7.13643 6.99165L7.05814 7.05814L6.99762 7.12824C6.83625 7.34573 6.83426 7.64424 6.99165 7.86373L7.05814 7.94202L9.11592 10.0001L7.05814 12.0582L6.99762 12.1282C6.83625 12.3457 6.83426 12.6442 6.99165 12.8637L7.05814 12.942L7.12824 13.0025C7.34573 13.1639 7.64424 13.1659 7.86373 13.0085L7.94202 12.942L10.0001 10.8842L12.0582 12.942L12.1282 13.0025C12.3457 13.1639 12.6442 13.1659 12.8637 13.0085L12.942 12.942L13.0025 12.8719C13.1639 12.6544 13.1659 12.3559 13.0085 12.1364L12.942 12.0582L10.8842 10.0001L12.942 7.94202L13.0025 7.87192C13.1639 7.65443 13.1659 7.35592 13.0085 7.13643L12.942 7.05814L12.8719 6.99762L12.942 7.05814Z" fill="#8E8E93"/>
</svg>
